<mxfile host="app.diagrams.net" modified="2023-07-30T18:55:23.283Z" agent="Mozilla/5.0 (Windows NT 10.0; Win64; x64) AppleWebKit/537.36 (KHTML, like Gecko) Chrome/115.0.0.0 Safari/537.36" etag="uVRTIo6KHWf3ouOvi03W" version="21.6.1" type="device">
  <diagram name="PÃ¡gina-1" id="aqLiGiyPOW3Xa5Z9d5JV">
    <mxGraphModel dx="1674" dy="750" grid="1" gridSize="10" guides="1" tooltips="1" connect="1" arrows="1" fold="1" page="1" pageScale="1" pageWidth="827" pageHeight="1169" math="0" shadow="0">
      <root>
        <mxCell id="0" />
        <mxCell id="1" parent="0" />
        <mxCell id="R8I4aE7NHVQ2pL9MScHb-5" value="" style="shape=cylinder3;whiteSpace=wrap;html=1;boundedLbl=1;backgroundOutline=1;size=15;" vertex="1" parent="1">
          <mxGeometry x="400" y="65" width="170" height="210" as="geometry" />
        </mxCell>
        <mxCell id="R8I4aE7NHVQ2pL9MScHb-9" value="" style="html=1;whiteSpace=wrap;shape=isoCube2;backgroundOutline=1;isoAngle=15;" vertex="1" parent="1">
          <mxGeometry x="610" y="40" width="60" height="60" as="geometry" />
        </mxCell>
        <mxCell id="R8I4aE7NHVQ2pL9MScHb-10" value="" style="html=1;whiteSpace=wrap;shape=isoCube2;backgroundOutline=1;isoAngle=15;" vertex="1" parent="1">
          <mxGeometry x="700" y="40" width="60" height="60" as="geometry" />
        </mxCell>
        <mxCell id="R8I4aE7NHVQ2pL9MScHb-11" value="" style="html=1;whiteSpace=wrap;shape=isoCube2;backgroundOutline=1;isoAngle=15;" vertex="1" parent="1">
          <mxGeometry x="610" y="110" width="60" height="60" as="geometry" />
        </mxCell>
        <mxCell id="R8I4aE7NHVQ2pL9MScHb-12" value="" style="html=1;whiteSpace=wrap;shape=isoCube2;backgroundOutline=1;isoAngle=15;" vertex="1" parent="1">
          <mxGeometry x="700" y="120" width="60" height="60" as="geometry" />
        </mxCell>
        <mxCell id="R8I4aE7NHVQ2pL9MScHb-17" value="Block Types" style="swimlane;whiteSpace=wrap;html=1;" vertex="1" parent="1">
          <mxGeometry x="610" y="190" width="150" height="130" as="geometry" />
        </mxCell>
        <mxCell id="R8I4aE7NHVQ2pL9MScHb-18" value="&lt;ul&gt;&lt;li&gt;&lt;span style=&quot;background-color: initial;&quot;&gt;Genesis&amp;nbsp;&lt;/span&gt;&lt;/li&gt;&lt;li&gt;User Creation&lt;/li&gt;&lt;li&gt;Zone Creation&lt;/li&gt;&lt;li&gt;User Move&lt;/li&gt;&lt;/ul&gt;" style="text;strokeColor=none;fillColor=none;html=1;whiteSpace=wrap;verticalAlign=middle;overflow=hidden;" vertex="1" parent="R8I4aE7NHVQ2pL9MScHb-17">
          <mxGeometry x="10" y="30" width="130" height="90" as="geometry" />
        </mxCell>
        <mxCell id="R8I4aE7NHVQ2pL9MScHb-20" value="" style="shape=image;verticalLabelPosition=bottom;labelBackgroundColor=default;verticalAlign=top;aspect=fixed;imageAspect=0;image=https://www.loginradius.com/blog/static/4eda1ce5a0f541d97fdf27cd88bf2a49/03979/index.png;" vertex="1" parent="1">
          <mxGeometry x="364.93" y="80" width="240.15" height="160" as="geometry" />
        </mxCell>
        <mxCell id="R8I4aE7NHVQ2pL9MScHb-26" value="Worker 1" style="swimlane;whiteSpace=wrap;html=1;startSize=23;" vertex="1" parent="1">
          <mxGeometry x="371.25" y="350" width="113.75" height="100" as="geometry" />
        </mxCell>
        <mxCell id="R8I4aE7NHVQ2pL9MScHb-27" value="" style="shape=image;verticalLabelPosition=bottom;labelBackgroundColor=default;verticalAlign=top;aspect=fixed;imageAspect=0;image=https://d29fhpw069ctt2.cloudfront.net/clipart/105266/preview/ic_auto_repeat_disabled_preview_ad40.png;" vertex="1" parent="R8I4aE7NHVQ2pL9MScHb-26">
          <mxGeometry x="26.87" y="30" width="60" height="60" as="geometry" />
        </mxCell>
        <mxCell id="R8I4aE7NHVQ2pL9MScHb-30" value="Worker 2" style="swimlane;whiteSpace=wrap;html=1;startSize=23;" vertex="1" parent="1">
          <mxGeometry x="485" y="350" width="113.75" height="100" as="geometry" />
        </mxCell>
        <mxCell id="R8I4aE7NHVQ2pL9MScHb-31" value="" style="shape=image;verticalLabelPosition=bottom;labelBackgroundColor=default;verticalAlign=top;aspect=fixed;imageAspect=0;image=https://d29fhpw069ctt2.cloudfront.net/clipart/105266/preview/ic_auto_repeat_disabled_preview_ad40.png;" vertex="1" parent="R8I4aE7NHVQ2pL9MScHb-30">
          <mxGeometry x="26.87" y="30" width="60" height="60" as="geometry" />
        </mxCell>
        <mxCell id="R8I4aE7NHVQ2pL9MScHb-32" value="Worker 3" style="swimlane;whiteSpace=wrap;html=1;startSize=23;" vertex="1" parent="1">
          <mxGeometry x="371.25" y="450" width="113.75" height="100" as="geometry" />
        </mxCell>
        <mxCell id="R8I4aE7NHVQ2pL9MScHb-33" value="" style="shape=image;verticalLabelPosition=bottom;labelBackgroundColor=default;verticalAlign=top;aspect=fixed;imageAspect=0;image=https://d29fhpw069ctt2.cloudfront.net/clipart/105266/preview/ic_auto_repeat_disabled_preview_ad40.png;" vertex="1" parent="R8I4aE7NHVQ2pL9MScHb-32">
          <mxGeometry x="26.87" y="30" width="60" height="60" as="geometry" />
        </mxCell>
        <mxCell id="R8I4aE7NHVQ2pL9MScHb-34" value="Worker 4" style="swimlane;whiteSpace=wrap;html=1;startSize=23;" vertex="1" parent="1">
          <mxGeometry x="485" y="450" width="113.75" height="100" as="geometry" />
        </mxCell>
        <mxCell id="R8I4aE7NHVQ2pL9MScHb-35" value="" style="shape=image;verticalLabelPosition=bottom;labelBackgroundColor=default;verticalAlign=top;aspect=fixed;imageAspect=0;image=https://d29fhpw069ctt2.cloudfront.net/clipart/105266/preview/ic_auto_repeat_disabled_preview_ad40.png;" vertex="1" parent="R8I4aE7NHVQ2pL9MScHb-34">
          <mxGeometry x="26.87" y="30" width="60" height="60" as="geometry" />
        </mxCell>
        <mxCell id="R8I4aE7NHVQ2pL9MScHb-37" value="" style="shape=flexArrow;endArrow=classic;startArrow=classic;html=1;rounded=0;entryX=0.5;entryY=1;entryDx=0;entryDy=0;entryPerimeter=0;exitX=1;exitY=0;exitDx=0;exitDy=0;" edge="1" parent="1" source="R8I4aE7NHVQ2pL9MScHb-26" target="R8I4aE7NHVQ2pL9MScHb-5">
          <mxGeometry width="100" height="100" relative="1" as="geometry">
            <mxPoint x="170" y="490" as="sourcePoint" />
            <mxPoint x="270" y="390" as="targetPoint" />
          </mxGeometry>
        </mxCell>
        <mxCell id="R8I4aE7NHVQ2pL9MScHb-38" value="API" style="swimlane;whiteSpace=wrap;html=1;" vertex="1" parent="1">
          <mxGeometry x="90" y="80" width="160" height="180" as="geometry" />
        </mxCell>
        <mxCell id="R8I4aE7NHVQ2pL9MScHb-43" value="" style="shape=image;verticalLabelPosition=bottom;labelBackgroundColor=default;verticalAlign=top;aspect=fixed;imageAspect=0;image=https://www.softformance.com/wp-content/uploads/2022/07/1.3-FastAPI-Logo.jpg;" vertex="1" parent="R8I4aE7NHVQ2pL9MScHb-38">
          <mxGeometry x="10.409999999999997" y="45" width="139.18" height="90" as="geometry" />
        </mxCell>
        <mxCell id="R8I4aE7NHVQ2pL9MScHb-39" value="" style="shape=flexArrow;endArrow=classic;html=1;rounded=0;exitX=1;exitY=0.25;exitDx=0;exitDy=0;entryX=0;entryY=0;entryDx=0;entryDy=60;entryPerimeter=0;" edge="1" parent="1" source="R8I4aE7NHVQ2pL9MScHb-38" target="R8I4aE7NHVQ2pL9MScHb-5">
          <mxGeometry width="50" height="50" relative="1" as="geometry">
            <mxPoint x="270" y="160" as="sourcePoint" />
            <mxPoint x="320" y="110" as="targetPoint" />
          </mxGeometry>
        </mxCell>
        <mxCell id="R8I4aE7NHVQ2pL9MScHb-40" value="&lt;font style=&quot;font-size: 14px;&quot;&gt;Add Block&lt;/font&gt;" style="edgeLabel;html=1;align=center;verticalAlign=middle;resizable=0;points=[];" vertex="1" connectable="0" parent="R8I4aE7NHVQ2pL9MScHb-39">
          <mxGeometry x="-0.2545" y="3" relative="1" as="geometry">
            <mxPoint x="14" y="-15" as="offset" />
          </mxGeometry>
        </mxCell>
        <mxCell id="R8I4aE7NHVQ2pL9MScHb-41" value="" style="shape=flexArrow;endArrow=classic;html=1;rounded=0;entryX=1;entryY=0.75;entryDx=0;entryDy=0;exitX=0;exitY=0;exitDx=0;exitDy=150;exitPerimeter=0;" edge="1" parent="1" source="R8I4aE7NHVQ2pL9MScHb-5" target="R8I4aE7NHVQ2pL9MScHb-38">
          <mxGeometry width="50" height="50" relative="1" as="geometry">
            <mxPoint x="280" y="390" as="sourcePoint" />
            <mxPoint x="210" y="340" as="targetPoint" />
          </mxGeometry>
        </mxCell>
        <mxCell id="R8I4aE7NHVQ2pL9MScHb-44" value="&lt;font style=&quot;font-size: 14px;&quot;&gt;Get All Users &lt;br&gt;and&lt;br&gt;&amp;nbsp;Zone Status&lt;/font&gt;" style="edgeLabel;html=1;align=center;verticalAlign=middle;resizable=0;points=[];" vertex="1" connectable="0" parent="1">
          <mxGeometry x="330" y="255" as="geometry" />
        </mxCell>
      </root>
    </mxGraphModel>
  </diagram>
</mxfile>
